<svg width="25" height="24" viewBox="0 0 25 24" fill="none" xmlns="http://www.w3.org/2000/svg">
<path d="M2 12C2 6.20101 6.70101 1.5 12.5 1.5C15.2848 1.5 17.9555 2.60625 19.9246 4.57538C21.8938 6.54451 23 9.21523 23 12C23 12.4258 22.9747 12.8457 22.9254 13.2583C22.5136 12.7806 22.0335 12.3634 21.5003 12.022C21.5054 10.9315 21.3122 9.82972 20.9076 8.7704C19.5761 5.28449 16.2315 2.9818 12.5 2.9818C8.76846 2.9818 5.42395 5.28449 4.09245 8.7704C2.76095 12.2563 3.71867 16.2023 6.5 18.69V17.25C6.5008 17.1823 6.51089 17.115 6.53 17.05C6.78 15.055 8.685 13.5 11 13.5H12.8762C12.5203 13.9552 12.2237 14.4591 11.9982 15H11C10.8175 15.0011 10.6353 15.0161 10.455 15.045C9.06 15.26 8 16.275 8 17.5V19.78C9.39622 20.5952 10.9586 21.001 12.5202 20.9975C12.862 21.5318 13.2797 22.0129 13.7583 22.4254C13.3457 22.4747 12.9258 22.5 12.5 22.5C6.70101 22.5 2 17.799 2 12Z" fill="white"/>
<path fill-rule="evenodd" clip-rule="evenodd" d="M8.5 8.5C8.5 6.29086 10.2909 4.5 12.5 4.5C13.5609 4.5 14.5783 4.92143 15.3284 5.67157C16.0786 6.42172 16.5 7.43913 16.5 8.5C16.5 10.7091 14.7091 12.5 12.5 12.5C10.2909 12.5 8.5 10.7091 8.5 8.5ZM10 8.5C10 9.88071 11.1193 11 12.5 11C13.8807 11 15 9.88071 15 8.5C15 7.11929 13.8807 6 12.5 6C11.1193 6 10 7.11929 10 8.5Z" fill="white"/>
<path fill-rule="evenodd" clip-rule="evenodd" d="M18.0044 22.5044C20.7658 22.5044 23.0044 20.2658 23.0044 17.5044C23.0044 14.743 20.7658 12.5044 18.0044 12.5044C15.243 12.5044 13.0044 14.743 13.0044 17.5044C13.0044 20.2658 15.243 22.5044 18.0044 22.5044ZM20.0347 15.4741C20.3276 15.767 20.3276 16.2418 20.0347 16.5347L19.0651 17.5044L20.0347 18.4741C20.3276 18.767 20.3276 19.2418 20.0347 19.5347C19.7418 19.8276 19.267 19.8276 18.9741 19.5347L18.0044 18.5651L17.0347 19.5347C16.7418 19.8276 16.267 19.8276 15.9741 19.5347C15.6812 19.2418 15.6812 18.767 15.9741 18.4741L16.9437 17.5044L15.9741 16.5347C15.6812 16.2418 15.6812 15.767 15.9741 15.4741C16.267 15.1812 16.7418 15.1812 17.0347 15.4741L18.0044 16.4437L18.9741 15.4741C19.267 15.1812 19.7418 15.1812 20.0347 15.4741Z" fill="white"/>
</svg>
