<svg width="25" height="24" viewBox="0 0 25 24" fill="none" xmlns="http://www.w3.org/2000/svg">
<path d="M13.0605 2.46821L21.6665 12.0262C21.9435 12.3342 21.9185 12.8082 21.611 13.0857C21.303 13.3627 20.829 13.3377 20.552 13.0302L12.4995 4.08671L4.44854 13.0277C4.17154 13.3357 3.69754 13.3602 3.38954 13.0832C3.08154 12.8062 3.05654 12.3317 3.33354 12.0242L11.94 2.46621C11.9478 2.45733 11.9574 2.45137 11.967 2.44544C11.9747 2.44068 11.9824 2.43594 11.989 2.42971C12.0014 2.41832 12.0147 2.40913 12.0282 2.39986C12.036 2.39448 12.0438 2.38908 12.0515 2.38321C12.1095 2.33871 12.17 2.29971 12.2355 2.27471C12.2578 2.26617 12.2806 2.26149 12.3036 2.25678C12.3116 2.25515 12.3196 2.25351 12.3275 2.25171C12.3875 2.23721 12.4475 2.22571 12.5085 2.22571C12.5431 2.22655 12.5774 2.23309 12.6115 2.23962C12.6179 2.24083 12.6242 2.24204 12.6305 2.24321C12.6805 2.25221 12.7305 2.26121 12.7785 2.28021C12.828 2.30021 12.8735 2.33171 12.9185 2.36321C12.9256 2.36801 12.9327 2.37271 12.9398 2.3774C12.9673 2.39567 12.9948 2.41384 13.019 2.43771C13.0248 2.4432 13.0314 2.44722 13.0381 2.45127C13.0461 2.45606 13.054 2.46089 13.0605 2.46821Z" fill="white"/>
<path d="M7.00029 20.2743H18.0003V11.6948L19.5003 13.3608V21.0243C19.5003 21.4378 19.1653 21.7733 18.7518 21.7743H6.25029C5.83579 21.7743 5.50029 21.4388 5.50029 21.0243V13.3613L7.00029 11.6953V20.2743Z" fill="white"/>
</svg>
