<svg width="24" height="24" viewBox="0 0 24 24" fill="none" xmlns="http://www.w3.org/2000/svg">
<path fill-rule="evenodd" clip-rule="evenodd" d="M19.2644 16.1379V7.88794C20.4018 7.53772 21.1346 6.4343 21.0163 5.25013C20.898 4.06596 19.9614 3.12932 18.7772 3.01102C17.593 2.89272 16.4896 3.62557 16.1394 4.76294H7.8894C7.53919 3.62557 6.43577 2.89272 5.2516 3.01102C4.06742 3.12932 3.13078 4.06596 3.01249 5.25013C2.89419 6.4343 3.62703 7.53772 4.7644 7.88794V16.1379C3.62703 16.4881 2.89419 17.5916 3.01249 18.7757C3.13078 19.9599 4.06742 20.8966 5.2516 21.0149C6.43577 21.1331 7.53919 20.4003 7.8894 19.2629H16.1394C16.4896 20.4003 17.593 21.1331 18.7772 21.0149C19.9614 20.8966 20.898 19.9599 21.0163 18.7757C21.1346 17.5916 20.4018 16.4881 19.2644 16.1379ZM16.1394 17.7629H7.8894C7.64354 16.9897 7.03768 16.3838 6.2644 16.1379V7.88794C7.03768 7.64208 7.64354 7.03622 7.8894 6.26294H16.1394C16.3853 7.03622 16.9911 7.64208 17.7644 7.88794V16.1379C16.9911 16.3838 16.3853 16.9897 16.1394 17.7629ZM18.5144 4.51294C19.0667 4.51294 19.5144 4.96065 19.5144 5.51294C19.5144 6.06522 19.0667 6.51294 18.5144 6.51294C17.9621 6.51294 17.5144 6.06522 17.5144 5.51294C17.5144 4.96065 17.9621 4.51294 18.5144 4.51294ZM5.5144 4.51294C6.06669 4.51294 6.5144 4.96065 6.5144 5.51294C6.5144 6.06522 6.06669 6.51294 5.5144 6.51294C4.96212 6.51294 4.5144 6.06522 4.5144 5.51294C4.5144 4.96065 4.96212 4.51294 5.5144 4.51294ZM5.5144 19.5129C4.96212 19.5129 4.5144 19.0652 4.5144 18.5129C4.5144 17.9607 4.96212 17.5129 5.5144 17.5129C6.06669 17.5129 6.5144 17.9607 6.5144 18.5129C6.5144 19.0652 6.06669 19.5129 5.5144 19.5129ZM18.5144 19.5129C17.9621 19.5129 17.5144 19.0652 17.5144 18.5129C17.5144 17.9607 17.9621 17.5129 18.5144 17.5129C19.0667 17.5129 19.5144 17.9607 19.5144 18.5129C19.5144 19.0652 19.0667 19.5129 18.5144 19.5129Z" fill="#4D4D4D"/>
</svg>
