<svg width="20" height="20" viewBox="0 0 20 20" fill="none" xmlns="http://www.w3.org/2000/svg">
<path fill-rule="evenodd" clip-rule="evenodd" d="M19.5 0.748535C19.5 0.334322 19.1642 -0.00146484 18.75 -0.00146484H1.25C0.835786 -0.00146484 0.5 0.334322 0.5 0.748535V19.2485C0.5 19.6627 0.835786 19.9985 1.25 19.9985H18.75C19.1642 19.9985 19.5 19.6627 19.5 19.2485V0.748535ZM2 5.24854H8.5V7.74854C8.5 8.16275 8.83579 8.49854 9.25 8.49854H13V18.4985H2V5.24854ZM14.5 7.74854C14.5 7.33432 14.1642 6.99854 13.75 6.99854H10V4.49854C10 4.08432 9.66421 3.74854 9.25 3.74854H2V1.49854H18V18.4985H14.5V7.74854Z" fill="#4D4D4D"/>
</svg>
